<?xml version="1.0" standalone="no"?>
<!DOCTYPE svg PUBLIC "-//W3C//DTD SVG 20010904//EN"
 "http://www.w3.org/TR/2001/REC-SVG-20010904/DTD/svg10.dtd">
<svg version="1.0" xmlns="http://www.w3.org/2000/svg"
 width="64.000000pt" height="64.000000pt" viewBox="0 0 64.000000 64.000000"
 preserveAspectRatio="xMidYMid meet">

<g transform="translate(0.000000,64.000000) scale(0.100000,-0.100000)"
fill="#000000" stroke="none">
<path d="M20 320 l0 -300 300 0 300 0 0 300 0 300 -300 0 -300 0 0 -300z m435
214 c-21 -75 -97 -235 -134 -283 -15 -20 -52 -69 -81 -109 -29 -40 -56 -70
-61 -65 -12 12 45 165 98 263 56 105 178 268 190 256 2 -2 -3 -30 -12 -62z
m-127 -11 c-45 -102 -187 -298 -203 -281 -9 9 29 109 61 164 37 63 113 144
135 144 17 0 17 -3 7 -27z m206 -115 c-13 -43 -63 -135 -99 -184 -45 -59 -106
-124 -117 -124 -14 0 -9 17 33 104 29 59 62 108 107 156 69 73 88 85 76 48z"/>
</g>
</svg>
