<?xml version="1.0" encoding="UTF-8" standalone="no"?>
<!DOCTYPE svg PUBLIC "-//W3C//DTD SVG 20010904//EN"
              "http://www.w3.org/TR/2001/REC-SVG-20010904/DTD/svg10.dtd">

<svg xmlns="http://www.w3.org/2000/svg"
     width="11.1111in" height="11.1111in"
     viewBox="0 0 1000 1000">
  <path id="Tracciato importato #10"
        fill="white" stroke="black" stroke-width="1"
        d="M 36.00,385.00
           C 36.00,393.00 42.00,399.00 50.00,399.00
             50.00,399.00 236.00,399.00 236.00,399.00
             236.00,402.00 237.00,405.00 240.00,408.00
             242.00,410.00 246.00,412.00 249.00,412.00
             249.00,412.00 351.00,412.00 351.00,412.00
             380.00,412.00 406.00,434.00 410.00,463.00
             410.00,463.00 413.00,486.00 413.00,486.00
             418.00,521.00 448.00,547.00 483.00,547.00
             483.00,547.00 600.00,547.00 600.00,547.00
             621.00,547.00 638.00,561.00 642.00,581.00
             642.00,581.00 680.00,764.00 680.00,764.00
             684.00,781.00 700.00,794.00 718.00,794.00
             718.00,794.00 868.00,794.00 868.00,794.00
             878.00,794.00 888.00,790.00 895.00,783.00
             896.00,782.00 897.00,781.00 897.00,780.00
             905.00,771.00 908.00,760.00 906.00,749.00
             906.00,749.00 859.00,497.00 859.00,497.00
             852.00,458.00 873.00,419.00 909.00,405.00
             922.00,399.00 931.00,390.00 937.00,379.00
             947.00,378.00 956.00,374.00 963.00,367.00
             970.00,360.00 975.00,350.00 975.00,339.00
             975.00,328.00 971.00,318.00 963.00,310.00
             956.00,303.00 945.00,299.00 935.00,299.00
             932.00,299.00 930.00,299.00 927.00,299.00
             927.00,299.00 926.00,294.00 926.00,294.00
             915.00,257.00 881.00,232.00 843.00,232.00
             843.00,232.00 838.00,232.00 838.00,232.00
             838.00,232.00 838.00,220.00 838.00,220.00
             838.00,212.00 832.00,206.00 825.00,206.00
             817.00,206.00 811.00,212.00 811.00,220.00
             811.00,220.00 811.00,232.00 811.00,232.00
             811.00,232.00 129.00,232.00 129.00,232.00
             130.00,231.00 130.00,230.00 130.00,228.00
             130.00,221.00 124.00,215.00 116.00,215.00
             116.00,215.00 80.00,215.00 80.00,215.00
             72.00,215.00 66.00,221.00 66.00,228.00
             66.00,230.00 66.00,231.00 66.00,232.00
             66.00,232.00 39.00,232.00 39.00,232.00
             35.00,232.00 32.00,233.00 29.00,236.00
             27.00,238.00 25.00,242.00 25.00,246.00
             25.00,246.00 25.00,340.00 25.00,340.00
             25.00,347.00 30.00,352.00 36.00,353.00
             36.00,353.00 36.00,385.00 36.00,385.00 Z
           M 236.00,371.00
           C 236.00,371.00 63.00,371.00 63.00,371.00
             63.00,371.00 63.00,354.00 63.00,354.00
             63.00,354.00 236.00,354.00 236.00,354.00
             236.00,354.00 236.00,371.00 236.00,371.00 Z
           M 712.00,326.00
           C 712.00,326.00 53.00,326.00 53.00,326.00
             53.00,326.00 53.00,259.00 53.00,259.00
             53.00,259.00 384.00,259.00 384.00,259.00
             384.00,259.00 384.00,286.00 384.00,286.00
             384.00,290.00 385.00,294.00 388.00,296.00
             390.00,299.00 394.00,300.00 397.00,300.00
             397.00,300.00 550.00,300.00 550.00,300.00
             554.00,300.00 557.00,299.00 559.00,296.00
             562.00,294.00 563.00,290.00 563.00,286.00
             563.00,286.00 563.00,259.00 563.00,259.00
             563.00,259.00 712.00,259.00 712.00,259.00
             712.00,259.00 712.00,326.00 712.00,326.00 Z
           M 351.00,384.00
           C 351.00,384.00 263.00,384.00 263.00,384.00
             263.00,384.00 263.00,354.00 263.00,354.00
             263.00,354.00 914.00,354.00 914.00,354.00
             915.00,365.00 909.00,375.00 899.00,379.00
             885.00,385.00 873.00,393.00 863.00,403.00
             838.00,428.00 825.00,465.00 832.00,502.00
             832.00,502.00 879.00,754.00 879.00,754.00
             880.00,758.00 878.00,761.00 876.00,763.00
             875.00,764.00 873.00,766.00 868.00,766.00
             868.00,766.00 718.00,766.00 718.00,766.00
             713.00,766.00 708.00,763.00 707.00,758.00
             707.00,758.00 669.00,575.00 669.00,575.00
             662.00,543.00 633.00,520.00 600.00,520.00
             600.00,520.00 599.00,520.00 599.00,520.00
             607.00,510.00 612.00,499.00 614.00,486.00
             617.00,462.00 610.00,437.00 594.00,418.00
             578.00,399.00 554.00,389.00 529.00,389.00
             529.00,389.00 484.00,389.00 484.00,389.00
             458.00,389.00 435.00,402.00 422.00,422.00
             406.00,399.00 380.00,384.00 351.00,384.00 Z
           M 483.00,520.00
           C 462.00,520.00 443.00,504.00 440.00,482.00
             440.00,482.00 437.00,460.00 437.00,460.00
             438.00,438.00 455.00,419.00 478.00,416.00
             479.00,416.00 480.00,416.00 482.00,416.00
             510.00,420.00 533.00,444.00 533.00,474.00
             533.00,477.00 532.00,479.00 532.00,482.00
             531.00,492.00 526.00,500.00 520.00,507.00
             512.00,515.00 501.00,520.00 489.00,520.00
             489.00,520.00 483.00,520.00 483.00,520.00 Z
           M 545.00,520.00
           C 552.00,510.00 557.00,499.00 559.00,486.00
             560.00,482.00 560.00,478.00 560.00,474.00
             560.00,452.00 552.00,432.00 538.00,417.00
             551.00,419.00 564.00,426.00 573.00,436.00
             584.00,449.00 589.00,466.00 587.00,482.00
             584.00,503.00 566.00,519.00 545.00,520.00 Z
           M 536.00,273.00
           C 536.00,273.00 411.00,273.00 411.00,273.00
             411.00,273.00 411.00,259.00 411.00,259.00
             411.00,259.00 536.00,259.00 536.00,259.00
             536.00,259.00 536.00,273.00 536.00,273.00 Z
           M 751.00,326.00
           C 751.00,326.00 740.00,326.00 740.00,326.00
             740.00,326.00 740.00,259.00 740.00,259.00
             740.00,259.00 751.00,259.00 751.00,259.00
             751.00,259.00 751.00,326.00 751.00,326.00 Z
           M 790.00,326.00
           C 790.00,326.00 779.00,326.00 779.00,326.00
             779.00,326.00 779.00,259.00 779.00,259.00
             779.00,259.00 790.00,259.00 790.00,259.00
             790.00,259.00 790.00,326.00 790.00,326.00 Z
           M 830.00,326.00
           C 830.00,326.00 818.00,326.00 818.00,326.00
             818.00,326.00 818.00,259.00 818.00,259.00
             818.00,259.00 830.00,259.00 830.00,259.00
             830.00,259.00 830.00,326.00 830.00,326.00 Z
           M 907.00,326.00
           C 907.00,326.00 857.00,326.00 857.00,326.00
             857.00,326.00 857.00,261.00 857.00,261.00
             877.00,266.00 894.00,281.00 899.00,301.00
             899.00,301.00 907.00,326.00 907.00,326.00 Z
           M 947.00,339.00
           C 947.00,343.00 945.00,347.00 941.00,350.00
             941.00,347.00 940.00,344.00 940.00,342.00
             940.00,342.00 935.00,326.00 935.00,326.00
             938.00,326.00 941.00,328.00 944.00,330.00
             946.00,332.00 947.00,335.00 947.00,339.00 Z
           M 709.00,731.00
           C 712.00,747.00 727.00,760.00 744.00,760.00
             744.00,760.00 829.00,760.00 829.00,760.00
             839.00,760.00 848.00,756.00 855.00,749.00
             855.00,748.00 856.00,747.00 857.00,746.00
             864.00,738.00 867.00,727.00 865.00,717.00
             865.00,717.00 807.00,418.00 807.00,418.00
             803.00,401.00 788.00,389.00 771.00,389.00
             771.00,389.00 682.00,389.00 682.00,389.00
             671.00,389.00 661.00,393.00 654.00,402.00
             648.00,410.00 645.00,421.00 647.00,432.00
             647.00,432.00 709.00,731.00 709.00,731.00 Z
           M 744.00,732.00
           C 740.00,732.00 736.00,729.00 736.00,725.00
             736.00,725.00 674.00,426.00 674.00,426.00
             673.00,423.00 675.00,420.00 676.00,419.00
             676.00,419.00 676.00,419.00 676.00,419.00
             677.00,417.00 679.00,416.00 682.00,416.00
             682.00,416.00 771.00,416.00 771.00,416.00
             775.00,416.00 779.00,419.00 780.00,423.00
             780.00,423.00 838.00,722.00 838.00,722.00
             838.00,725.00 837.00,728.00 836.00,729.00
             835.00,730.00 833.00,732.00 829.00,732.00
             829.00,732.00 744.00,732.00 744.00,732.00 Z
           M 818.00,698.00
           C 818.00,698.00 768.00,698.00 768.00,698.00
             766.00,698.00 765.00,699.00 764.00,701.00
             764.00,701.00 758.00,701.00 758.00,701.00
             752.00,701.00 740.00,706.00 740.00,713.00
             740.00,713.00 740.00,713.00 740.00,713.00
             740.00,719.00 752.00,725.00 758.00,725.00
             758.00,725.00 764.00,725.00 764.00,725.00
             765.00,726.00 766.00,728.00 768.00,728.00
             768.00,728.00 818.00,728.00 818.00,728.00
             819.00,728.00 821.00,729.00 822.00,729.00
             825.00,729.00 827.00,727.00 827.00,725.00
             827.00,725.00 827.00,701.00 827.00,701.00
             827.00,698.00 825.00,696.00 822.00,696.00
             821.00,696.00 819.00,697.00 818.00,698.00 Z
           M 812.00,665.00
           C 812.00,665.00 761.00,665.00 761.00,665.00
             759.00,665.00 758.00,666.00 758.00,667.00
             758.00,667.00 751.00,667.00 751.00,667.00
             745.00,667.00 733.00,673.00 733.00,679.00
             733.00,679.00 733.00,679.00 733.00,679.00
             733.00,686.00 745.00,691.00 751.00,691.00
             751.00,691.00 758.00,691.00 758.00,691.00
             758.00,693.00 759.00,694.00 761.00,694.00
             761.00,694.00 812.00,694.00 812.00,694.00
             813.00,695.00 814.00,696.00 815.00,696.00
             818.00,696.00 820.00,694.00 820.00,691.00
             820.00,691.00 820.00,667.00 820.00,667.00
             820.00,665.00 818.00,663.00 815.00,663.00
             814.00,663.00 812.00,663.00 812.00,665.00 Z
           M 805.00,631.00
           C 805.00,631.00 755.00,631.00 755.00,631.00
             753.00,631.00 752.00,632.00 752.00,633.00
             752.00,633.00 745.00,633.00 745.00,633.00
             739.00,633.00 727.00,639.00 727.00,645.00
             727.00,645.00 727.00,645.00 727.00,645.00
             727.00,652.00 739.00,657.00 745.00,657.00
             745.00,657.00 751.00,657.00 751.00,657.00
             752.00,659.00 753.00,660.00 755.00,660.00
             755.00,660.00 806.00,660.00 806.00,660.00
             806.00,661.00 808.00,662.00 809.00,662.00
             812.00,662.00 814.00,660.00 814.00,657.00
             814.00,657.00 814.00,633.00 814.00,633.00
             814.00,631.00 812.00,629.00 809.00,629.00
             808.00,629.00 806.00,629.00 805.00,631.00 Z
           M 799.00,597.00
           C 799.00,597.00 748.00,597.00 748.00,597.00
             747.00,597.00 745.00,599.00 745.00,600.00
             745.00,600.00 739.00,600.00 739.00,600.00
             732.00,600.00 720.00,605.00 720.00,612.00
             720.00,612.00 720.00,612.00 720.00,612.00
             720.00,619.00 732.00,624.00 739.00,624.00
             739.00,624.00 745.00,624.00 745.00,624.00
             745.00,626.00 746.00,627.00 748.00,627.00
             748.00,627.00 799.00,627.00 799.00,627.00
             800.00,628.00 801.00,629.00 803.00,629.00
             805.00,629.00 807.00,627.00 807.00,624.00
             807.00,624.00 807.00,600.00 807.00,600.00
             807.00,597.00 805.00,595.00 803.00,595.00
             801.00,595.00 799.00,596.00 799.00,597.00 Z
           M 792.00,563.00
           C 792.00,563.00 742.00,563.00 742.00,563.00
             740.00,563.00 739.00,564.00 738.00,566.00
             738.00,566.00 732.00,566.00 732.00,566.00
             726.00,566.00 714.00,571.00 714.00,578.00
             714.00,578.00 714.00,578.00 714.00,578.00
             714.00,584.00 726.00,590.00 732.00,590.00
             732.00,590.00 738.00,590.00 738.00,590.00
             739.00,592.00 740.00,593.00 742.00,593.00
             742.00,593.00 792.00,593.00 792.00,593.00
             793.00,594.00 795.00,595.00 796.00,595.00
             799.00,595.00 801.00,592.00 801.00,590.00
             801.00,590.00 801.00,566.00 801.00,566.00
             801.00,563.00 799.00,561.00 796.00,561.00
             794.00,561.00 793.00,562.00 792.00,563.00 Z
           M 785.00,530.00
           C 785.00,530.00 735.00,530.00 735.00,530.00
             733.00,530.00 732.00,531.00 732.00,533.00
             732.00,533.00 725.00,533.00 725.00,533.00
             719.00,533.00 707.00,538.00 707.00,544.00
             707.00,544.00 707.00,544.00 707.00,544.00
             707.00,551.00 719.00,557.00 725.00,557.00
             725.00,557.00 732.00,557.00 732.00,557.00
             732.00,558.00 733.00,559.00 735.00,559.00
             735.00,559.00 786.00,559.00 786.00,559.00
             787.00,560.00 788.00,561.00 789.00,561.00
             792.00,561.00 794.00,559.00 794.00,556.00
             794.00,556.00 794.00,532.00 794.00,532.00
             794.00,530.00 792.00,528.00 789.00,528.00
             788.00,528.00 786.00,528.00 785.00,530.00 Z
           M 779.00,496.00
           C 779.00,496.00 729.00,496.00 729.00,496.00
             727.00,496.00 726.00,497.00 725.00,499.00
             725.00,499.00 719.00,499.00 719.00,499.00
             713.00,499.00 701.00,504.00 701.00,511.00
             701.00,511.00 701.00,511.00 701.00,511.00
             701.00,517.00 713.00,523.00 719.00,523.00
             719.00,523.00 725.00,523.00 725.00,523.00
             726.00,524.00 727.00,526.00 729.00,526.00
             729.00,526.00 780.00,526.00 780.00,526.00
             780.00,526.00 782.00,527.00 783.00,527.00
             786.00,527.00 788.00,525.00 788.00,523.00
             788.00,523.00 788.00,499.00 788.00,499.00
             788.00,496.00 786.00,494.00 783.00,494.00
             782.00,494.00 780.00,495.00 779.00,496.00 Z
           M 773.00,463.00
           C 773.00,463.00 722.00,463.00 722.00,463.00
             720.00,463.00 719.00,464.00 719.00,465.00
             719.00,465.00 713.00,465.00 713.00,465.00
             706.00,465.00 694.00,471.00 694.00,477.00
             694.00,477.00 694.00,477.00 694.00,477.00
             694.00,484.00 706.00,489.00 713.00,489.00
             713.00,489.00 719.00,489.00 719.00,489.00
             719.00,491.00 720.00,492.00 722.00,492.00
             722.00,492.00 773.00,492.00 773.00,492.00
             774.00,493.00 775.00,494.00 776.00,494.00
             779.00,494.00 781.00,492.00 781.00,489.00
             781.00,489.00 781.00,465.00 781.00,465.00
             781.00,463.00 779.00,461.00 776.00,461.00
             775.00,461.00 773.00,461.00 773.00,463.00 Z
           M 767.00,429.00
           C 767.00,429.00 716.00,429.00 716.00,429.00
             714.00,429.00 713.00,430.00 713.00,431.00
             713.00,431.00 707.00,431.00 707.00,431.00
             700.00,431.00 688.00,437.00 688.00,443.00
             688.00,443.00 688.00,443.00 688.00,443.00
             688.00,450.00 700.00,455.00 707.00,455.00
             707.00,455.00 713.00,455.00 713.00,455.00
             713.00,457.00 714.00,458.00 716.00,458.00
             716.00,458.00 767.00,458.00 767.00,458.00
             768.00,459.00 769.00,460.00 770.00,460.00
             773.00,460.00 775.00,458.00 775.00,455.00
             775.00,455.00 775.00,431.00 775.00,431.00
             775.00,429.00 773.00,427.00 770.00,427.00
             769.00,427.00 767.00,427.00 767.00,429.00 Z" />
</svg>
