<?xml version="1.0" standalone="no"?>
<!DOCTYPE svg PUBLIC "-//W3C//DTD SVG 20010904//EN"
 "http://www.w3.org/TR/2001/REC-SVG-20010904/DTD/svg10.dtd">
<svg version="1.0" xmlns="http://www.w3.org/2000/svg"
 width="63.000000pt" height="63.000000pt" viewBox="0 0 63.000000 63.000000"
 preserveAspectRatio="xMidYMid meet">

<g transform="translate(0.000000,63.000000) scale(0.100000,-0.100000)"
fill="#000000" stroke="none">
<path d="M20 315 l0 -295 295 0 295 0 0 295 0 295 -295 0 -295 0 0 -295z m422
223 c69 -35 158 -107 158 -128 0 -6 -19 3 -42 20 -84 61 -241 87 -354 59 -44
-11 -47 -11 -77 19 -21 21 -28 35 -21 42 18 18 89 29 176 27 76 -3 95 -7 160
-39z m-371 -4 c13 -14 86 -84 161 -156 134 -126 138 -129 160 -114 25 18 58
21 58 7 0 -5 3 -17 7 -26 5 -14 2 -16 -14 -11 -13 4 -26 0 -37 -13 -18 -19
-17 -21 2 -53 12 -18 32 -44 46 -57 34 -32 34 -61 2 -61 -15 0 -27 7 -30 18
-4 10 -24 35 -45 56 -38 38 -39 38 -65 21 -19 -12 -25 -23 -21 -36 8 -24 -17
-26 -40 -3 -15 15 -14 19 11 45 14 15 24 34 22 41 -6 14 -140 203 -214 301
-24 31 -44 59 -44 62 0 12 19 3 41 -21z m402 -111 c86 -47 102 -73 22 -38 -64
29 -163 34 -206 11 -25 -12 -29 -11 -59 17 l-33 31 39 12 c68 23 156 10 237
-33z m-3 -75 l35 -19 -41 6 c-25 4 -57 0 -84 -9 -40 -14 -46 -14 -62 1 -25 23
-23 31 15 42 40 12 92 4 137 -21z"/>
</g>
</svg>
