<?xml version="1.0" encoding="UTF-8" standalone="no"?>
<!DOCTYPE svg PUBLIC "-//W3C//DTD SVG 20010904//EN"
              "http://www.w3.org/TR/2001/REC-SVG-20010904/DTD/svg10.dtd">

<svg xmlns="http://www.w3.org/2000/svg"
     width="1.11111in" height="1.11111in"
     viewBox="0 0 100 100">
  <path id="Tracciato importato"
        fill="white" stroke="black" stroke-width="1"
        d="M 17.55,36.35
           C 22.76,27.04 31.85,20.19 42.62,18.01
             42.62,18.01 40.12,25.72 40.12,25.72
             34.27,27.74 29.25,31.48 25.63,36.35
             25.63,36.35 17.55,36.35 17.55,36.35 Z
           M 59.88,25.72
           C 65.72,27.74 70.75,31.48 74.38,36.35
             74.38,36.35 82.45,36.35 82.45,36.35
             77.24,27.04 68.15,20.19 57.38,18.01
             57.38,18.01 59.88,25.72 59.88,25.72 Z
           M 58.54,83.60
           C 55.83,84.39 52.97,84.84 50.00,84.84
             47.04,84.84 44.18,84.39 41.47,83.60
             41.47,83.60 34.88,88.38 34.88,88.38
             39.51,90.44 44.62,91.60 50.00,91.60
             55.38,91.60 60.49,90.44 65.12,88.38
             65.12,88.38 58.54,83.60 58.54,83.60 Z
           M 80.35,55.34
           C 80.17,61.47 78.18,67.15 74.88,71.86
             74.88,71.86 77.37,79.55 77.37,79.55
             83.45,72.93 87.16,64.11 87.16,54.44
             87.16,53.12 87.09,51.82 86.96,50.54
             86.96,50.54 80.35,55.34 80.35,55.34 Z
           M 25.12,71.86
           C 21.82,67.15 19.83,61.47 19.65,55.34
             19.65,55.34 13.04,50.54 13.04,50.54
             12.91,51.82 12.84,53.12 12.84,54.44
             12.84,64.11 16.55,72.93 22.63,79.55
             22.63,79.55 25.12,71.86 25.12,71.86 Z
           M 41.59,71.28
           C 41.59,71.28 33.90,76.87 33.90,76.87
             33.90,76.87 37.85,64.70 37.85,64.70
             37.85,64.70 37.85,64.70 37.85,64.70
             37.85,64.70 40.05,57.94 40.05,57.94
             40.05,57.94 40.05,57.94 40.05,57.94
             40.05,57.94 42.83,49.36 42.83,49.36
             42.83,49.36 35.72,49.36 35.72,49.36
             35.72,49.36 34.29,53.76 34.29,53.76
             34.29,53.76 34.29,53.76 34.29,53.76
             34.29,53.76 31.79,61.46 31.79,61.46
             31.79,61.46 31.79,61.46 31.79,61.46
             31.79,61.46 22.50,90.03 22.50,90.03
             22.04,91.47 23.68,92.66 24.90,91.77
             24.90,91.77 47.34,75.46 47.34,75.46
             47.34,75.46 41.59,71.28 41.59,71.28 Z
           M 31.64,51.83
           C 31.64,51.83 23.95,46.24 23.95,46.24
             23.95,46.24 34.88,46.24 34.88,46.24
             34.88,46.24 36.74,46.24 36.74,46.24
             36.74,46.24 43.85,46.24 43.85,46.24
             43.85,46.24 45.80,46.24 45.80,46.24
             45.80,46.24 52.87,46.24 52.87,46.24
             52.87,46.24 50.67,39.48 50.67,39.48
             50.67,39.48 47.44,39.48 47.44,39.48
             47.44,39.48 46.05,39.48 46.05,39.48
             46.05,39.48 38.93,39.48 38.93,39.48
             38.93,39.48 37.32,39.48 37.32,39.48
             37.32,39.48 7.91,39.48 7.91,39.48
             6.40,39.48 5.77,41.40 6.99,42.29
             6.99,42.29 29.44,58.59 29.44,58.59
             29.44,58.59 31.64,51.83 31.64,51.83 Z
           M 47.06,36.35
           C 47.06,36.35 50.00,27.31 50.00,27.31
             50.00,27.31 53.60,38.40 53.60,38.40
             53.60,38.40 53.60,38.40 53.60,38.40
             53.60,38.40 53.68,38.63 53.68,38.63
             53.68,38.63 53.95,39.47 53.95,39.47
             53.95,39.47 53.95,39.47 53.95,39.47
             53.95,39.47 56.15,46.24 56.15,46.24
             56.15,46.24 56.15,46.24 56.15,46.24
             56.15,46.24 58.94,54.81 58.94,54.81
             58.94,54.81 64.69,50.63 64.69,50.63
             64.69,50.63 63.63,47.38 63.63,47.38
             63.63,47.38 63.63,47.38 63.63,47.38
             63.63,47.38 60.82,38.73 60.82,38.73
             60.82,38.73 51.48,9.96 51.48,9.96
             51.01,8.53 48.98,8.53 48.52,9.96
             48.52,9.96 39.95,36.35 39.95,36.35
             39.95,36.35 47.06,36.35 47.06,36.35
             47.06,36.35 47.06,36.35 47.06,36.35 Z
           M 68.92,63.65
           C 68.92,63.65 63.17,67.83 63.17,67.83
             63.17,67.83 66.10,76.87 66.10,76.87
             66.10,76.87 57.87,70.89 57.87,70.89
             57.87,70.89 57.87,70.89 57.87,70.89
             57.87,70.89 48.89,64.36 48.89,64.36
             48.89,64.36 48.89,64.36 48.89,64.36
             48.89,64.36 42.71,59.87 42.71,59.87
             42.71,59.87 40.51,66.64 40.51,66.64
             40.51,66.64 44.25,69.35 44.25,69.35
             44.25,69.35 44.25,69.35 44.25,69.35
             44.25,69.35 51.12,74.34 51.12,74.34
             51.12,74.34 51.12,74.34 51.12,74.34
             51.12,74.34 75.11,91.77 75.11,91.77
             76.32,92.65 77.96,91.46 77.50,90.03
             77.50,90.03 68.92,63.65 68.92,63.65 Z
           M 92.09,39.48
           C 92.09,39.48 64.35,39.48 64.35,39.48
             64.35,39.48 66.55,46.24 66.55,46.24
             66.55,46.24 76.05,46.24 76.05,46.24
             76.05,46.24 66.21,53.39 66.21,53.39
             66.21,53.39 59.95,57.94 59.95,57.94
             59.95,57.94 59.95,57.94 59.95,57.94
             59.95,57.94 52.66,63.24 52.66,63.24
             52.66,63.24 58.41,67.42 58.41,67.42
             58.41,67.42 60.45,65.94 60.45,65.94
             60.45,65.94 60.45,65.94 60.45,65.94
             60.45,65.94 62.08,64.76 62.08,64.76
             62.08,64.76 62.15,64.70 62.15,64.70
             62.15,64.70 62.15,64.70 62.15,64.70
             62.15,64.70 67.91,60.52 67.91,60.52
             67.91,60.52 67.91,60.52 67.91,60.52
             67.91,60.52 68.30,60.24 68.30,60.24
             68.30,60.24 70.18,58.88 70.18,58.88
             70.18,58.88 70.18,58.88 70.18,58.88
             70.18,58.88 93.01,42.29 93.01,42.29
             94.22,41.40 93.60,39.48 92.09,39.48 Z" />
</svg>
