<?xml version="1.0" standalone="no"?>
<!DOCTYPE svg PUBLIC "-//W3C//DTD SVG 20010904//EN"
 "http://www.w3.org/TR/2001/REC-SVG-20010904/DTD/svg10.dtd">
<svg version="1.0" xmlns="http://www.w3.org/2000/svg"
 width="52.000000pt" height="52.000000pt" viewBox="0 0 52.000000 52.000000"
 preserveAspectRatio="xMidYMid meet">

<g transform="translate(0.000000,52.000000) scale(0.100000,-0.100000)"
fill="#000000" stroke="none">
<path d="M20 260 l0 -240 240 0 240 0 0 240 0 240 -240 0 -240 0 0 -240z m264
173 l17 -33 -31 0 c-33 0 -35 5 -20 46 12 30 12 31 34 -13z m-70 -35 c-3 -4
-13 -8 -24 -8 -19 0 -30 19 -30 53 0 19 2 19 30 -8 16 -15 27 -32 24 -37z
m146 43 c0 -10 -7 -24 -15 -31 -12 -10 -15 -10 -15 3 0 23 11 47 21 47 5 0 9
-8 9 -19z m-237 -56 c16 -11 16 -16 5 -34 -7 -12 -15 -21 -18 -21 -3 0 -18 23
-34 51 l-29 52 29 -17 c16 -10 37 -23 47 -31z m325 0 c-12 -25 -24 -45 -27
-45 -4 0 -14 12 -24 25 -17 24 -17 24 20 44 53 28 55 27 31 -24z m-134 -29 c9
-14 6 -21 -14 -38 -20 -17 -21 -20 -5 -13 48 19 61 17 93 -16 35 -36 38 -46
21 -83 -11 -24 -13 -24 -40 -10 -19 10 -29 22 -29 38 0 20 -5 23 -42 22 l-43
-1 -1 45 c-2 67 34 100 60 56z m-80 6 c2 -4 6 -41 8 -82 2 -51 -1 -75 -10 -78
-6 -2 -12 -9 -12 -15 0 -6 14 3 30 20 17 17 41 33 55 35 21 4 25 1 25 -17 0
-13 -7 -25 -15 -29 -8 -3 -21 -18 -27 -33 -7 -15 -17 -31 -23 -35 -17 -12 1
-19 26 -9 13 5 18 10 12 10 -20 1 -15 26 11 50 20 19 27 20 50 10 30 -14 32
-26 10 -57 -10 -15 -13 -32 -9 -52 l7 -30 -107 0 -108 0 7 39 c3 22 2 41 -3
43 -5 2 -12 18 -16 37 -6 29 -5 33 9 28 30 -12 43 13 38 69 -5 64 3 104 23
104 7 0 16 -4 19 -8z m146 -13 c14 -25 6 -36 -14 -20 -8 7 -20 10 -26 6 -5 -3
-10 0 -10 8 0 33 34 37 50 6z m-206 -15 c9 -24 7 -122 -3 -128 -24 -15 -47 72
-34 126 6 22 29 24 37 2z m-65 -40 c2 -2 -8 -4 -22 -4 -18 0 -27 5 -27 15 0
13 4 14 23 4 12 -6 24 -13 26 -15z m344 2 c-12 -16 -21 -21 -28 -15 -7 7 -3
15 9 25 30 22 39 17 19 -10z"/>
</g>
</svg>
