<?xml version="1.0" encoding="UTF-8" standalone="no"?>
<!DOCTYPE svg PUBLIC "-//W3C//DTD SVG 20010904//EN"
              "http://www.w3.org/TR/2001/REC-SVG-20010904/DTD/svg10.dtd">

<svg xmlns="http://www.w3.org/2000/svg"
     width="1.11111in" height="1.11111in"
     viewBox="0 0 100 100">
  <path id="Tracciato importato"
        fill="white" stroke="black" stroke-width="1"
        d="M 17.52,89.58
           C 17.52,89.58 10.42,82.50 10.42,82.50
             9.62,84.80 9.98,87.12 11.43,88.58
             12.88,90.04 15.21,90.38 17.52,89.58 Z
           M 18.47,84.48
           C 18.47,84.48 15.52,81.53 15.52,81.53
             15.52,81.53 13.35,83.84 13.35,83.84
             13.35,83.84 16.16,86.64 16.16,86.64
             16.16,86.64 18.47,84.48 18.47,84.48 Z
           M 21.61,81.56
           C 21.61,81.56 18.44,78.39 18.44,78.39
             18.44,78.39 16.27,80.71 16.27,80.71
             16.27,80.71 19.28,83.72 19.28,83.72
             19.28,83.72 21.61,81.56 21.61,81.56 Z
           M 19.19,77.57
           C 19.19,77.57 22.43,80.80 22.43,80.80
             22.43,80.80 24.75,78.64 24.75,78.64
             24.75,78.64 21.36,75.26 21.36,75.26
             21.36,75.26 19.19,77.57 19.19,77.57 Z
           M 27.88,75.72
           C 27.88,75.72 24.28,72.12 24.28,72.12
             24.28,72.12 22.11,74.45 22.11,74.45
             22.11,74.45 25.57,77.88 25.57,77.88
             25.57,77.88 27.88,75.72 27.88,75.72 Z
           M 31.02,72.80
           C 31.02,72.80 27.21,68.98 27.21,68.98
             27.21,68.98 25.03,71.30 25.03,71.30
             25.03,71.30 28.70,74.96 28.70,74.96
             28.70,74.96 31.02,72.80 31.02,72.80 Z
           M 32.24,72.43
           C 32.24,72.43 33.10,73.30 33.10,73.30
             33.10,73.30 35.19,71.21 35.19,71.21
             35.19,71.21 28.79,64.81 28.79,64.81
             28.79,64.81 26.70,66.90 26.70,66.90
             26.70,66.90 27.57,67.76 27.57,67.76
             27.57,67.77 27.58,67.77 27.58,67.77
             27.58,67.77 32.22,72.41 32.22,72.41
             32.22,72.41 32.22,72.43 32.24,72.43 Z
           M 39.53,74.76
           C 38.23,76.14 38.26,78.35 39.60,79.70
             40.98,81.08 43.22,81.08 44.59,79.70
             45.26,79.03 45.63,78.14 45.63,77.20
             45.63,76.26 45.26,75.36 44.59,74.71
             44.59,74.70 44.59,74.70 44.59,74.70
             44.59,74.70 38.54,68.65 38.54,68.65
             38.54,68.65 38.53,68.65 38.53,68.65
             38.53,68.65 38.53,68.65 38.53,68.64
             37.48,67.59 36.88,66.16 36.88,64.67
             36.88,64.02 37.01,63.38 37.24,62.77
             36.62,62.99 35.98,63.11 35.34,63.11
             33.90,63.11 32.46,62.58 31.37,61.48
             31.36,61.48 31.36,61.48 31.36,61.47
             31.36,61.47 25.31,55.44 25.31,55.44
             25.31,55.43 25.31,55.43 25.31,55.43
             23.98,54.11 21.63,54.10 20.32,55.43
             19.65,56.10 19.28,56.99 19.28,57.93
             19.28,58.88 19.65,59.77 20.32,60.43
             21.65,61.76 23.88,61.79 25.26,60.49
             25.30,60.45 25.38,60.45 25.44,60.42
             25.51,60.39 25.57,60.35 25.65,60.35
             25.71,60.35 25.75,60.39 25.81,60.41
             25.88,60.44 25.97,60.44 26.03,60.51
             26.03,60.51 32.77,67.25 32.77,67.25
             32.77,67.25 36.37,70.84 36.37,70.84
             36.37,70.84 39.53,74.00 39.53,74.00
             39.57,74.06 39.57,74.13 39.60,74.19
             39.63,74.25 39.67,74.31 39.67,74.38
             39.68,74.47 39.63,74.53 39.60,74.60
             39.57,74.64 39.59,74.70 39.53,74.76 Z
           M 38.52,60.69
           C 38.53,60.68 38.53,60.66 38.55,60.66
             38.55,60.66 77.35,21.86 77.35,21.86
             77.35,21.86 77.04,14.27 77.04,14.27
             77.04,14.27 32.56,61.00 32.56,61.00
             34.34,62.40 36.89,62.29 38.52,60.69 Z
           M 78.13,22.66
           C 78.13,22.66 39.34,61.43 39.34,61.43
             39.34,61.44 39.34,61.44 39.34,61.44
             39.34,61.45 39.33,61.45 39.31,61.47
             38.48,62.31 38.01,63.44 38.01,64.64
             38.01,65.66 38.37,66.63 39.00,67.43
             39.00,67.43 85.73,22.96 85.73,22.96
             85.73,22.96 78.13,22.66 78.13,22.66 Z
           M 90.00,10.00
           C 90.00,10.00 78.11,13.35 78.11,13.35
             78.11,13.35 78.45,21.56 78.45,21.56
             78.45,21.56 86.65,21.89 86.65,21.89
             86.65,21.89 90.00,10.00 90.00,10.00 Z" />
</svg>
