<?xml version="1.0" standalone="no"?>
<!DOCTYPE svg PUBLIC "-//W3C//DTD SVG 20010904//EN"
 "http://www.w3.org/TR/2001/REC-SVG-20010904/DTD/svg10.dtd">
<svg version="1.0" xmlns="http://www.w3.org/2000/svg"
 width="64.000000pt" height="64.000000pt" viewBox="0 0 64.000000 64.000000"
 preserveAspectRatio="xMidYMid meet">

<g transform="translate(0.000000,64.000000) scale(0.100000,-0.100000)"
fill="#000000" stroke="none">
<path d="M20 320 l0 -300 300 0 300 0 0 300 0 300 -300 0 -300 0 0 -300z m420
257 c0 -40 -19 -69 -64 -96 -52 -33 -64 -25 -24 17 21 20 44 54 53 75 19 46
35 48 35 4z m100 -30 c0 -32 -8 -56 -31 -91 -36 -54 -47 -61 -146 -91 -75 -24
-134 -60 -153 -96 -9 -16 -3 -14 30 10 23 17 87 45 142 62 84 27 108 40 154
81 l54 50 0 -34 c0 -43 -46 -110 -90 -133 -17 -9 -67 -20 -110 -25 -82 -9
-108 -18 -129 -44 -11 -13 -9 -13 19 0 18 9 68 20 112 25 76 9 129 27 143 49
11 18 25 11 25 -13 0 -13 -15 -38 -35 -57 -34 -33 -38 -34 -140 -40 -57 -3
-107 -8 -110 -11 -3 -3 36 -9 87 -13 57 -4 96 -2 102 4 16 16 26 12 26 -10 0
-40 -42 -53 -149 -47 -87 4 -105 2 -155 -18 -31 -13 -72 -35 -91 -49 -18 -14
-36 -26 -39 -26 -13 0 -5 31 24 93 43 90 47 124 21 182 -27 61 -27 65 7 65 78
0 307 80 362 127 16 13 35 40 42 58 17 47 28 44 28 -8z"/>
</g>
</svg>
