<?xml version="1.0" standalone="no"?>
<!DOCTYPE svg PUBLIC "-//W3C//DTD SVG 20010904//EN"
 "http://www.w3.org/TR/2001/REC-SVG-20010904/DTD/svg10.dtd">
<svg version="1.0" xmlns="http://www.w3.org/2000/svg"
 width="66.000000pt" height="66.000000pt" viewBox="0 0 66.000000 66.000000"
 preserveAspectRatio="xMidYMid meet">

<g transform="translate(0.000000,66.000000) scale(0.100000,-0.100000)"
fill="#000000" stroke="none">
<path d="M20 330 l0 -310 310 0 310 0 0 310 0 310 -310 0 -310 0 0 -310z m244
210 c3 8 7 26 8 40 3 23 5 22 26 -17 12 -24 27 -43 32 -43 5 0 20 19 32 43 21
39 23 40 26 17 7 -56 12 -57 51 -11 l38 44 -5 -55 c-2 -31 0 -58 5 -61 5 -3
27 6 48 20 33 22 37 23 31 7 -33 -80 -31 -98 5 -75 25 15 22 18 38 -46 12 -48
11 -59 -8 -116 -12 -35 -19 -71 -15 -80 4 -12 1 -17 -12 -17 -12 -1 -33 -22
-54 -56 -30 -47 -35 -52 -42 -35 -4 12 1 51 13 92 23 85 22 132 -4 137 -28 6
-49 -16 -36 -39 12 -24 4 -39 -23 -39 -14 0 -18 -5 -14 -16 8 -20 -12 -57 -25
-48 -6 3 -13 -3 -16 -15 -6 -24 -23 -28 -23 -6 0 8 -4 15 -10 15 -5 0 -10 -7
-10 -15 0 -25 -17 -17 -25 12 -5 21 -8 24 -15 13 -12 -20 -23 -6 -23 30 0 22
-5 30 -18 30 -24 0 -32 16 -20 39 13 23 -8 45 -36 39 -26 -5 -27 -52 -4 -137
12 -41 17 -80 13 -92 -7 -17 -12 -12 -42 35 -25 40 -41 55 -57 56 -25 0 -28 7
-14 29 6 9 2 35 -11 70 -17 50 -18 62 -7 112 12 54 14 56 36 46 39 -17 40 -4
7 77 -6 16 -2 15 31 -7 21 -14 43 -23 48 -20 5 3 7 30 5 61 l-5 55 38 -44 c27
-32 39 -40 43 -29z"/>
<path d="M263 303 c14 -15 29 -24 33 -20 10 10 -13 34 -38 40 -20 6 -20 4 5
-20z"/>
<path d="M387 312 c-26 -16 -36 -32 -19 -32 12 1 57 38 52 44 -3 2 -18 -3 -33
-12z"/>
</g>
</svg>
